<svg xmlns:inkscape="http://www.inkscape.org/namespaces/inkscape" xmlns:sodipodi="http://sodipodi.sourceforge.net/DTD/sodipodi-0.dtd" xmlns="http://www.w3.org/2000/svg" xmlns:svg="http://www.w3.org/2000/svg" version="1.1" id="svg5" inkscape:version="1.1.1 (3bf5ae0d25, 2021-09-20)" sodipodi:docname="logo-grude.svg" viewBox="0 0 206.56 215.94">
  <sodipodi:namedview id="namedview7" pagecolor="#ffffff" bordercolor="#666666" borderopacity="1.0" inkscape:pageshadow="2" inkscape:pageopacity="0.0" inkscape:pagecheckerboard="0" inkscape:document-units="mm" showgrid="false" inkscape:zoom="0.11322959" inkscape:cx="3113.1439" inkscape:cy="-543.14425" inkscape:window-width="1680" inkscape:window-height="997" inkscape:window-x="-8" inkscape:window-y="-8" inkscape:window-maximized="1" inkscape:current-layer="layer1"/>
  <defs id="defs2"/>
  <g inkscape:label="Layer 1" inkscape:groupmode="layer" id="layer1" transform="translate(-1.5946327,-41.374036)">
    <path d="m 11.896844,91.541416 c 0.294005,0.665303 1.595297,2.051402 2.154802,2.758898 0.736283,0.931016 1.448082,2.018489 2.0961,2.92989 1.039601,1.462193 2.908617,4.595106 3.722899,6.213016 1.659502,3.2972 3.131608,7.70061 3.585986,11.35719 0.65271,5.25191 0.657825,6.07229 -0.111795,11.39391 -0.683789,4.72849 -2.087986,9.65658 -3.683494,13.97688 -0.762494,2.0648 -2.503205,6.29733 -3.458492,8.28742 -1.346694,2.8056 -2.578911,5.13369 -3.825805,7.89908 -1.856598,4.11751 -3.9125872,7.82733 -5.4713005,12.0542 -0.5482872,1.48721 -1.1920008,2.78522 -1.7003888,4.21901 -0.5205942,1.46819 -0.9392003,2.89769 -1.3918142,4.41639 -0.5859991,1.96653 -1.7277997,7.91373 -1.8518011,9.98312 -0.2202038,3.6751 -0.3682999,4.87871 -0.3671005,8.37671 0.0024,6.63279 2.5813102,16.88077 5.7814985,22.2812 2.5637066,4.32639 5.1795186,7.94437 8.7952086,11.19378 4.05959,3.64832 5.08889,3.9885 9.557914,7.08081 0.68199,0.47188 1.4085,0.81788 2.116984,1.2355 1.468402,0.8654 2.779183,1.56598 4.295493,2.40608 0.656413,0.36372 1.560195,0.8932 2.184717,1.16301 4.101289,1.77179 8.120203,3.09379 12.832997,3.9135 3.8989,0.67822 7.993098,1.49581 11.96721,1.49581 h 28.582866 c 1.412099,0 1.874308,0.2903 3.035723,0.47318 2.34248,0.3688 5.505591,2.1493 7.263377,3.34233 0.635,0.43088 1.359711,1.00788 1.947827,1.51677 1.302875,1.12712 2.420695,2.31771 3.403105,3.74103 0.3888,0.56328 0.9784,1.70159 1.54439,2.06078 0.25608,-0.20891 2.05091,-2.77579 3.0867,-3.8676 1.66649,-1.7567 3.61428,-3.50221 5.79868,-4.69541 2.1264,-1.16148 5.69112,-2.57298 8.0857,-2.57288 l 28.5829,0.002 c 4.14031,1e-4 8.50541,-0.78349 12.59202,-1.54827 2.6531,-0.4965 5.88059,-1.331 8.4153,-2.18271 l 4.88188,-2.15741 c 0.74581,-0.40951 1.52361,-0.8097 2.32142,-1.24739 1.5923,-0.87341 3.0892,-1.68222 4.58449,-2.55961 1.51091,-0.8865 2.89352,-1.8964 4.35222,-2.79979 1.58397,-0.98111 2.72309,-1.97541 4.09169,-3.05541 1.36278,-1.0754 2.41349,-2.28229 3.6951,-3.34038 0.64781,-0.53481 1.13651,-1.29621 1.65679,-1.91731 0.68258,-0.81481 1.12691,-1.21232 1.66292,-1.9093 3.17189,-4.12479 4.18147,-6.67322 6.21608,-11.43 1.15652,-2.70401 1.7277,-5.43169 2.39879,-8.3184 1.0801,-4.6464 0.79301,-8.84971 0.79301,-13.77629 0,-2.40263 -0.5558,-5.12942 -0.8708,-7.45962 -0.28349,-2.09741 -1.03099,-4.6342 -1.62179,-6.62161 -0.62421,-2.09959 -1.4048,-4.12069 -2.1203,-6.145 -0.68802,-1.94649 -4.0398,-9.36159 -5.06811,-11.45808 -1.7792,-3.62712 -3.68431,-7.41119 -5.34201,-11.18831 -2.1686,-4.94108 -4.20959,-9.99621 -5.50707,-15.2727 -1.35513,-5.5112 -2.40383,-12.91149 -0.98803,-18.50239 1.44322,-5.69891 1.8838,-6.81139 4.57232,-11.95599 1.41058,-2.6991 3.03378,-5.05361 5.00359,-7.391997 0.43649,-0.518231 1.6686,-1.952519 1.84079,-2.397513 -0.32268,-0.47819 -3.697,-4.046291 -4.59338,-5.23561 l -4.01379,-5.804782 c -0.68602,-1.011802 -1.2458,-2.029919 -1.88821,-3.024399 -0.59941,-0.928018 -1.2856,-1.988609 -1.87181,-3.045425 -0.5329,-0.960684 -1.24029,-2.036374 -1.83419,-3.07728 -0.5848,-1.025102 -1.12071,-2.4003 -1.73112,-3.295298 -2.03577,-2.985205 -6.246,-12.3674 -8.27109,-16.408505 -0.93179,-1.859492 -4.06431,-8.611799 -4.5799,-10.276205 -0.95828,0.03549 -4.37031,1.504809 -5.614,1.912902 -1.82019,0.597288 -3.93869,1.330396 -5.8021,1.780505 -2.0194,0.487786 -4.0773,0.959379 -6.08379,1.514687 -2.34051,0.647805 -10.15619,2.195124 -12.657,2.523102 -6.83172,0.895914 -13.74309,2.053907 -20.77572,2.053801 -4.2352,-1.06e-4 -8.5176,0.116805 -12.74378,-0.121391 -1.25172,-0.07052 -5.608598,0.121003 -7.241923,0.121003 -1.637489,0 -3.275083,0 -4.912678,0 -3.903909,0 -7.800093,-0.258621 -11.637009,-0.665515 C 77.49446,50.039792 73.340537,49.523502 69.075841,48.860103 67.126533,48.556926 65.132456,48.009521 63.160852,47.643302 58.172257,46.71652 53.59814,45.639313 48.874728,44.051213 47.075844,43.446305 45.295057,43.004627 43.477546,42.303799 42.913242,42.086311 41.274448,41.401605 40.69233,41.375605 40.267444,42.558716 39.665958,43.652116 39.157253,44.7658 l -4.605197,10.1328 c -0.547793,1.262804 -7.336825,14.710727 -8.441125,16.239913 -1.153477,1.597307 -4.058779,6.938892 -5.591492,9.262392 -1.513488,2.294326 -5.355202,7.842109 -7.360885,9.83301 -0.519218,0.515409 -0.737094,0.557813 -1.26171,1.307501" style="fill:#b97c2c;fill-opacity:1;fill-rule:evenodd;stroke:none;stroke-width:0.352778" id="path5259" data-index="0"/>
    <path d="m 104.79223,248.57282 c 0.43222,-0.0431 0.34833,0.008 0.51481,-0.48701 0.112,-0.33299 0.15419,-0.51911 0.26821,-0.85139 0.49439,-1.44092 1.62169,-2.74881 2.5194,-3.8522 1.04969,-1.29021 3.39309,-2.89231 4.93878,-3.6577 2.07113,-1.02549 4.04143,-1.5306 6.30061,-2.30251 2.5103,-0.85771 12.96741,-1.2174 15.93681,-1.20879 1.79991,0.005 6.63501,-0.14553 8.28248,-0.33821 5.0158,-0.58671 9.45632,-1.52989 14.2331,-2.99181 1.16251,-0.35577 2.04252,-0.60257 3.16213,-1.07727 3.0988,-1.31392 5.84549,-2.41844 8.72197,-4.11082 1.9498,-1.14709 3.47821,-2.13649 5.17902,-3.4255 3.10589,-2.35409 5.80768,-4.8767 8.33138,-7.7403 1.87223,-2.1245 5.9007,-8.84661 6.8139,-11.50271 0.75823,-2.20507 1.5313,-4.07197 2.16313,-6.43188 1.31417,-4.90851 1.41757,-5.5361 2.14048,-10.5809 1.5634,-10.9106 -1.03491,-22.89062 -5.6109,-32.41431 -1.87039,-3.89269 -4.0199,-7.56948 -5.73899,-11.45519 -0.4693,-1.0607 -0.96922,-1.81532 -1.40659,-2.84081 -2.6537,-6.2211 -4.00361,-10.34161 -3.91721,-17.48998 0.0148,-1.22383 0.0536,-2.81662 0.1578,-4.08111 0.099,-1.20209 0.13229,-2.8471 0.31859,-3.99412 0.5836,-3.59297 1.5041,-6.7637 2.82219,-10.02407 1.60891,-3.97941 3.72932,-7.594215 5.93771,-11.259611 0.38061,-0.631719 1.42779,-2.217808 1.55599,-2.80162 l -3.48188,-4.444576 c -0.5601,-0.728804 -1.05039,-1.498106 -1.62221,-2.285295 -1.63029,-2.244125 -3.31781,-4.751599 -4.74151,-7.208625 -1.52298,-2.628477 -4.65388,-7.627373 -5.77197,-10.087399 -1.90772,-4.196891 -3.14541,-6.778589 -4.58813,-11.274601 -0.6932,-2.160093 -1.1673,-4.080792 -1.56587,-6.370073 -0.96481,0.276402 -2.05271,0.888295 -3.15133,1.328597 -1.08648,0.435398 -2.14157,0.848183 -3.29498,1.279878 -3.8336,1.435205 -9.9592,3.373719 -14.00799,4.200524 -2.57331,0.525392 -5.02412,0.997374 -7.6339,1.517474 -5.21483,1.039213 -10.69203,1.484524 -16.0927,2.092995 -10.60083,1.1944 -24.216713,1.234123 -34.837829,0.03732 C 84.916939,60.133924 82.136133,59.795505 79.411348,59.532297 75.714943,59.175215 67.738355,57.598616 63.988257,56.74941 58.552657,55.518427 51.528746,53.652409 46.479543,51.36782 45.531136,50.938595 44.192661,50.256111 43.27484,49.988 c -0.646995,4.1287 -2.233895,8.095827 -3.843479,11.908402 -0.538409,1.275221 -1.018999,2.650596 -1.589017,3.772112 -2.322583,4.569601 -4.635394,9.434194 -7.494199,13.613094 -1.333394,1.949203 -2.826985,4.354407 -4.311685,6.186487 -0.384316,0.47431 -0.703827,1.004323 -1.053324,1.514511 -0.591503,0.863917 -3.295897,4.171808 -3.416794,4.620718 -0.07479,0.277989 3.284608,5.883169 3.696405,6.677272 0.302084,0.582612 0.623006,1.121304 0.938495,1.626411 0.316512,0.506593 0.582895,1.151713 0.882791,1.798223 2.659521,5.7338 4.072502,9.74079 4.907598,16.20678 0.21463,1.6612 0.152929,3.49441 0.152929,5.23579 0,5.16551 -0.478226,8.97262 -2.081319,13.70602 -0.429506,1.2683 -0.986789,2.6042 -1.473693,3.87759 -0.974302,2.54861 -2.304698,4.6391 -3.501214,6.99992 -1.197892,2.36358 -2.258977,4.75897 -3.557587,7.05139 -1.257018,2.21901 -2.116702,4.9004 -3.090404,7.40989 -1.527598,3.93689 -2.483309,8.67142 -2.921882,12.9438 -0.149119,1.45189 -0.440408,3.3607 -0.449898,4.74179 -0.046,6.63801 0.934085,12.24411 2.548291,18.51611 0.839576,3.2621 2.773997,8.5428 4.470082,11.39162 1.769498,2.97197 3.639608,5.97387 6.116426,8.40017 l 1.873673,2.03461 c 0.475897,0.48411 0.903111,0.78411 1.428221,1.2513 4.122878,3.6686 7.997578,5.66459 12.697177,8.40701 2.240915,1.30768 9.136098,3.47871 11.728097,4.12979 12.747025,3.20188 17.302621,1.5215 28.970111,2.6192 5.424593,0.5104 3.950405,0.37271 8.760495,1.85261 4.554502,1.40131 8.195804,4.13519 10.324714,8.21729 0.2353,0.45099 0.4046,1.6462 0.80638,1.87491" style="fill:#ffffff;fill-opacity:1;fill-rule:evenodd;stroke:none;stroke-width:0.352778" id="path5256" data-index="1"/>
    <path id="path5253" style="fill:#28579e;fill-opacity:1;fill-rule:evenodd;stroke:none;stroke-width:1.33333" d="m 619.70117,210.43555 c -5.22814,1.08213 -15.62232,5.45414 -21.76367,7.38281 -37.71318,11.8428 -83.28488,20.03129 -122.96875,23.10742 -8.47026,0.65694 -18.82721,1.20651 -26.67578,2.45117 -5.19492,0.82347 -24.08582,1.9747 -29.86328,1.97657 -23.89746,0.008 -48.05172,0.87958 -71.90625,-1.73243 -17.93654,-1.96386 -36.16339,-2.85614 -53.85352,-5.31054 -8.59733,-1.1924 -17.22966,-2.52645 -25.69726,-3.78125 -27.8756,-4.13027 -56.30085,-10.86724 -82.71485,-20.29297 -3.06893,-1.09494 -7.9214,-3.22269 -11.01953,-3.77149 -2.398,6.62627 -4.75604,13.25229 -7.17578,19.84375 -4.6496,12.66707 -10.24931,25.7734 -16.69531,37.3418 -9.59507,17.22107 -19.53059,34.10649 -31.02539,50.00195 -5.33054,7.37121 -11.08013,16.09644 -17.15039,23.36524 -1.353872,1.62106 -5.388132,5.94471 -5.933598,7.49804 0.985732,1.91361 2.389246,3.88711 3.642579,5.57618 1.310799,1.76613 2.390109,3.74124 3.589839,5.68164 7.3152,11.83333 14.08342,24.07985 19.71875,36.83984 2.42494,5.49094 7.19197,22.46449 8.67383,28.9082 1.13547,4.93803 3.6543,29.26843 3.6543,34.43164 0,21.02665 1.13003,32.46291 -4.8125,53.55079 -4.45107,15.79385 -11.76728,30.68064 -19.22461,45.35156 l -5.57812,10.4668 c -1.98387,3.63481 -3.72242,7.1401 -5.882818,10.57421 -3.924668,6.23921 -7.918583,13.87732 -11.103515,20.98438 -1.638535,3.65628 -3.31473,7.40583 -4.986328,11.04102 -1.826669,3.97296 -2.95053,8.2047 -4.144531,12.30859 -2.500532,8.59532 -4.087104,17.2834 -5.648438,26.46875 -5.011332,29.48224 -4.240686,31.69024 -0.771484,61.2793 1.150533,9.81509 3.032273,18.00225 5.138672,27.33398 3.298,14.60746 2.690288,11.62921 7.304687,25.21094 2.013335,5.9252 6.970413,17.73288 10.027344,22.88672 6.818271,11.49509 18.144741,28.62181 28.546871,36.89062 2.7068,2.15214 5.91557,5.41915 8.2793,7.75195 4.43,4.37175 24.89675,18.47762 30.00781,19.78125 1.06387,-9.27722 3.29948,-19.73388 4.88282,-29.20507 l 24.57617,-146.83789 c 10.11107,-58.41306 19.38124,-117.68 29.89844,-176.06055 1.03493,-5.74371 19.16057,-115.26062 20.14843,-117.0918 l 8.00391,-0.0625 c 4.08346,0 3.66477,-0.0762 5.70117,-2.62695 l 27.5625,-34.39649 c 1.6852,1.19467 28.37237,38.72796 28.38477,38.7461 l 10.02343,0.14258 0.0547,10.63086 35.25391,0.0391 c 0.90893,-20.72159 1.78336,-41.47543 2.08203,-62.21289 l 1.42383,-42.67774 9.31054,-0.0469 c 4.35374,-5.35893 8.41762,-11.72524 12.8711,-17.89844 l 11.08203,-15.54883 c 2.47559,-3.6132 4.17048,0.0155 5.74609,2.20117 l 22.81836,31.16993 9.93945,0.10156 1.05079,32.14648 c 0.28157,20.6876 1.34503,42.13811 2.05664,62.89453 l 0.35351,9.86915 35.18946,0.002 0.0645,-10.49219 9.51367,-0.24414 10.37109,-14.4375 c 1.34586,-1.83267 2.39164,-2.81858 3.71485,-4.74805 1.33413,-1.9456 12.39662,-17.97276 14.125,-19.5625 4.87147,4.33507 25.20274,31.20261 30.00195,36.95703 l 11.83203,0.0156 c 0.0971,4.33066 1.52764,10.25943 2.25977,14.64062 0.85455,5.11374 1.71773,9.70903 2.55078,14.7793 1.63162,9.93147 3.15809,19.80488 5.01758,29.60742 3.72359,19.62641 6.73977,39.49851 10.11523,58.60743 5.22561,29.58387 10.43818,58.80127 15.10938,88.4082 1.56321,9.90656 3.65989,19.68869 5.06054,29.57812 1.32881,9.38162 3.16942,19.75703 5.00782,29.11328 1.90681,9.70587 3.37755,19.76597 5.07422,29.5625 3.41094,19.69656 6.80265,39.42918 10.11132,59.12305 l 16.38477,95.42578 c 0.56054,3.26132 -0.49537,3.95511 0.0156,7.125 0.80429,4.98214 1.60301,10.2967 2.46289,15.00977 2.61347,-0.8024 7.84522,-4.18528 10.27735,-5.64649 6.6308,-3.98358 12.32558,-8.69351 18.86719,-13.2207 4.24932,-2.94081 8.79441,-7.70818 12.5996,-11.45898 1.47708,-1.45584 2.38607,-1.97904 4.17579,-3.84571 1.36214,-1.42106 2.31405,-2.80871 3.60937,-4.41992 3.5444,-4.40814 7.57775,-8.55989 10.7832,-13.27148 3.21173,-4.72067 6.6419,-9.51743 9.50977,-14.5586 2.88268,-5.06721 5.15696,-11.04855 7.55469,-16.48242 3.97882,-9.01599 12.14629,-40.28682 13.77148,-50.37695 0.91348,-5.67201 3.3125,-23.57237 3.3125,-28.60742 0,-17.72935 -0.19654,-21.01869 -3.7539,-41.59375 -1.81864,-10.51922 -5.07625,-28.92751 -9.78516,-38.39258 -5.3043,-10.6608 -9.86457,-22.1398 -15.83203,-32.28711 -1.98361,-3.37319 -3.66511,-7.21574 -5.73633,-10.30664 -4.3313,-6.46417 -7.5676,-13.94223 -11.09961,-20.96875 -8.64518,-17.19946 -18.79883,-42.98621 -18.79883,-62.01953 0,-30.94523 1.11374,-57.80042 11.70117,-86.41602 3.40547,-9.2036 8.47206,-18.13866 12.63672,-26.63281 2.17134,-4.42773 4.76369,-8.18378 7.375,-12.46484 8.39883,-13.7688 8.92779,-10.58756 4.60938,-16.14649 l -8.9961,-11.26953 c -9.71414,-12.08773 -24.94407,-34.84027 -32.57421,-48.46094 -3.21226,-5.73386 -6.19469,-11.65644 -9.27149,-17.32617 -4.8432,-8.92453 -8.7202,-18.19994 -13.21289,-27.29687 -1.39997,-2.83494 -2.62283,-6.53771 -3.79297,-9.73438 -2.31228,-6.31706 -5.29688,-13.63439 -7.125,-19.93945 z" transform="scale(0.26458333)" data-index="2"/>
    <path d="m 72.971461,221.49871 c 0.683683,0.42281 2.09878,1.62049 3.259278,2.37141 0.410104,0.26529 0.739599,0.51499 1.140601,0.75149 1.035897,0.61101 4.578597,1.45602 6.097905,1.41259 2.299688,-0.0657 4.346892,-0.55488 6.203209,-1.29649 1.104194,-0.44112 1.869299,-1.28411 2.673491,-1.90948 l 1.61611,-1.26013 c 1.031205,0.85733 3.200083,2.41551 4.352678,3.10272 1.053324,0.62787 4.658927,1.44699 6.146907,1.35361 2.20729,-0.13861 4.38372,-0.51721 6.125,-1.3698 0.59732,-0.29242 1.57589,-1.05901 2.12869,-1.55342 l 2.12563,-1.70321 2.10358,1.61582 c 0.65839,0.5176 1.50361,1.05908 2.26099,1.52898 1.14222,0.7088 4.4638,1.50071 6.13223,1.48442 2.68337,-0.0263 5.39199,-0.56272 7.36758,-2.02752 1.33432,-0.9894 2.1032,-1.73818 3.09549,-2.51178 1.00111,0.62459 3.68931,2.94598 4.667,3.342 2.01062,0.8146 4.44052,1.33989 6.9064,1.11739 3.582,-0.32321 6.82932,-2.51858 9.27711,-4.91169 0.44241,-0.4325 0.78189,-0.51682 1.10599,-1.05812 -0.30519,-0.54479 -0.283,-0.43099 -0.3924,-1.2011 l -1.53687,-9.65158 c -0.15081,-0.94992 -0.24913,-1.74642 -0.42062,-2.71409 -0.13529,-0.7638 -0.4729,-0.73152 -1.70698,-1.51381 -0.60421,-0.38312 -1.40762,-0.78211 -2.11512,-1.12413 -1.8065,-0.87308 -8.575,-0.51957 -10.34538,0.39233 -1.02772,0.52938 -3.35122,1.8228 -4.1698,2.5309 -0.31563,0.27298 -0.58103,0.5969 -0.92491,0.8298 -0.63119,-0.3049 -1.40611,-0.92071 -2.11081,-1.3855 -2.04679,-1.35001 -2.41939,-1.66571 -4.88188,-2.48211 -0.5515,-0.18281 -2.63522,-0.32431 -3.36893,-0.35789 -0.79809,-0.0365 -2.77459,0.10209 -3.46068,0.2588 -0.46711,0.10668 -0.99419,0.21858 -1.46402,0.3266 -0.64739,0.1488 -0.77738,0.3109 -1.30369,0.5861 -1.60828,0.84089 -3.11549,1.68198 -4.41371,2.95251 -2.1989,-1.26422 -3.5946,-2.82311 -6.85148,-3.78492 -1.62722,-0.48059 -5.27932,-0.40979 -7.0069,-0.0197 -1.366206,0.3084 -1.530001,0.2968 -2.664216,0.9094 -1.675801,0.90508 -3.275789,1.80481 -4.321881,2.93578 -2.334225,-0.84427 -4.135614,-4.16479 -10.383696,-4.16987 -4.468707,-0.004 -6.593699,0.97007 -9.698214,3.29678 -0.412785,0.30942 -0.586281,0.6163 -1.020304,0.8709 l -3.945607,-2.52638 c -2.830372,-1.67841 -4.613381,-1.64183 -7.666179,-1.64123 -2.326393,7e-4 -5.395418,0.9296 -7.086494,2.2232 -2.032811,1.55491 -1.507102,0.10312 -2.066713,3.63171 l -1.597096,9.687 c -0.146014,0.81749 -0.135396,0.7615 0.405589,1.32439 1.327397,1.38081 3.72939,3.1205 5.393408,3.9884 1.449705,0.75601 0.809307,0.6477 2.550689,1.2463 0.9404,0.32332 2.04851,0.64442 3.180221,0.64562 2.949892,0.003 6.359172,-0.91412 8.504378,-2.80709 z" style="fill:#676767;fill-opacity:1;fill-rule:evenodd;stroke:none;stroke-width:0.352778" id="path5250" data-index="3"/>
    <path d="m 79.875251,150.6434 4.104287,-0.0767 0.799324,-9.67048 c 0.09507,-1.0922 0.559999,-6.22011 0.490396,-7.14802 -0.06191,-0.82688 -0.105516,-1.692 -0.08583,-2.52991 1.101302,-0.2183 1.643627,0.14132 3.369028,-0.85958 0.804898,-0.4669 1.580304,-1.7604 2.288787,-2.0931 0.180199,2.3115 -0.314784,8.52131 -0.315595,11.29629 -0.0011,3.21642 -0.502602,8.7454 -0.322298,11.36192 l 1.812396,0.0151 1.931882,-40.80673 -10.369585,-0.0436 z" style="fill:#28579e;fill-opacity:1;fill-rule:evenodd;stroke:none;stroke-width:0.352778" id="path5247" data-index="4"/>
    <path d="m 117.29703,150.94563 1.70692,-2.1e-4 c -0.0335,-1.8674 -0.0867,-3.8366 -0.21541,-5.59312 -0.0676,-0.92279 -0.0291,-1.94028 -0.0826,-2.8696 -0.0508,-0.88349 -0.13441,-1.91117 -0.13751,-2.80137 -0.008,-2.29581 -0.54762,-10.31723 -0.34901,-11.46711 2.0724,2.03941 2.57401,2.80109 5.95172,2.8249 0.006,2.10559 -0.41752,1.9516 -0.1602,4.93141 l 0.78828,9.7372 c 0.1148,1.6099 0.20451,3.3686 0.40432,4.95349 l 3.9297,0.003 -3.6558,-40.5742 -10.20131,-10e-4 2.02088,40.85681 z" style="fill:#28579e;fill-opacity:1;fill-rule:evenodd;stroke:none;stroke-width:0.352778" id="path5244" data-index="5"/>
    <path d="m 98.800261,195.81893 c 3.394389,0.10269 7.003379,-0.049 10.346799,0.0448 0.15427,0.28169 0.25939,0.12139 0.3338,0.57019 l -10.656222,0.0309 -0.02099,0.99688 c 3.451512,0.1289 7.981702,-0.005 11.642192,0.019 0.19262,-1.58242 0.0634,-16.11542 0.0625,-18.93782 0,-0.83848 -0.8648,-4.286 -1.17832,-4.9833 -0.36569,-0.81308 -0.59369,-1.30157 -1.0287,-1.9842 -0.18789,-0.29488 -0.4343,-0.74178 -0.60981,-0.9586 -0.23738,-0.29337 -0.53259,-0.4415 -0.83407,-0.7288 -0.56233,-0.5357 -0.93282,-0.87059 -1.78731,-1.23688 -0.62089,-0.2662 -1.57442,0.30311 -2.1088,0.687 -1.68741,1.212 -3.134294,3.49441 -3.669493,5.61019 -0.893727,3.53251 -0.49971,1.81691 -0.49971,5.38152 0,5.02098 -0.142098,10.62207 0.0081,15.4891" style="fill:#28579e;fill-opacity:1;fill-rule:evenodd;stroke:none;stroke-width:0.352778" id="path5241" data-index="6"/>
    <path d="m 57.299238,197.4597 12.04542,0.0141 0.142981,-1.01001 -10.292397,-0.0109 c 0.124707,-0.46288 0.136101,-0.156 0.262008,-0.59418 l 10.010986,-0.0121 0.807226,-18.86271 c -0.0448,-0.8219 -0.37472,-2.6005 -0.577426,-3.43048 -0.266383,-1.09111 -0.599299,-1.83621 -1.160992,-2.74881 -1.115589,-1.81282 -0.797489,-1.103 -1.781316,-2.1989 -1.136791,0.0908 -2.859969,1.56319 -3.587785,2.36231 -1.806611,1.98359 -2.050415,2.40827 -3.171402,5.31657 -0.638104,1.65551 -1.526505,10.59413 -1.738806,12.65071 -0.123296,1.19479 -1.0281,7.95892 -0.958497,8.52439" style="fill:#28579e;fill-opacity:1;fill-rule:evenodd;stroke:none;stroke-width:0.352778" id="path5238" data-index="7"/>
    <path d="m 138.88714,177.09101 0.9556,18.7609 7.1646,-0.014 c 0.53852,0.0419 0.511,0.14209 0.59891,0.61291 h -7.71902 l 0.0298,1.00489 11.9307,0.0211 c 0.12089,-0.63518 -1.80178,-15.04139 -2.04139,-16.94198 -0.31831,-2.52423 -0.6895,-5.27572 -2.13032,-7.35902 -0.59048,-0.85368 -1.29159,-2.09881 -2.09359,-2.71219 -0.72831,-0.557 -1.80781,-1.5639 -2.94019,-1.90711 -0.60061,0.32339 -1.17412,0.96192 -1.5694,1.49299 -0.86611,1.1636 -0.5284,0.64682 -1.06381,2.06153 -0.5165,1.36479 -1.12571,3.33957 -1.1219,4.97998" style="fill:#28579e;fill-opacity:1;fill-rule:evenodd;stroke:none;stroke-width:0.352778" id="path5235" data-index="8"/>
    <path d="m 119.05034,193.39682 0.12079,2.44518 8.6214,0.005 c 0.629,-3.5e-4 0.53382,-0.0549 0.7233,0.45311 -0.0287,0.0187 -0.0738,0.004 -0.0924,0.0446 -0.0186,0.0402 -0.068,0.0332 -0.0943,0.0406 l -9.11,0.061 0.0475,1.0135 12.0305,0.006 c -0.0205,-1.25882 -0.32809,-2.91892 -0.49188,-4.18331 -0.17579,-1.3576 -0.3592,-2.79742 -0.52342,-4.14482 -0.32688,-2.68238 -0.7239,-5.47088 -1.09068,-8.20667 -0.35722,-2.6646 -0.5678,-5.45331 -1.71542,-7.54331 -0.56448,-1.02831 -1.29519,-1.88591 -2.03817,-2.65141 -0.5509,-0.5674 -1.39541,-1.68941 -2.55761,-2.09401 -2.228,1.82421 -3.2482,4.5122 -4.22761,7.12611 -0.56791,1.51599 -0.40591,1.53839 -0.34879,3.2234 l 0.54768,10.82929 c 0.0519,1.1939 0.18722,2.44062 0.19911,3.57522" style="fill:#28579e;fill-opacity:1;fill-rule:evenodd;stroke:none;stroke-width:0.352778" id="path5232" data-index="9"/>
    <path d="m 77.86096,197.46241 12.200185,0.007 0.06442,-0.98982 -11.459422,-0.0383 c -0.662693,-0.12192 0.433106,0.147 -0.197485,-0.0554 l -0.181398,-0.0851 c 0.279188,-0.4269 0.389996,-0.45311 0.825077,-0.453 3.079397,0 8.113606,0.13811 11.018908,-0.0207 l 0.811918,-17.61599 c 0.08237,-2.61991 -1.599107,-5.82031 -3.050011,-7.66971 -0.621595,-0.79237 -1.168294,-1.23987 -1.762407,-1.90729 -1.648707,0.91489 -3.541007,3.09601 -4.439885,4.78102 -1.0922,2.04717 -1.401304,4.93 -1.71002,7.57738 -0.321486,2.75682 -0.709894,5.49511 -1.026477,8.255 z" style="fill:#28579e;fill-opacity:1;fill-rule:evenodd;stroke:none;stroke-width:0.352778" id="path5229" data-index="10"/>
    <path d="m 56.413236,160.21603 96.198194,0.005 -0.3296,-2.71437 c -0.73738,-0.21442 -21.19598,-0.0664 -23.81927,-0.0664 H 62.811143 c -1.891806,0 -4.184897,-0.1161 -6.027596,0.0207 z" style="fill:#28579e;fill-opacity:1;fill-rule:evenodd;stroke:none;stroke-width:0.352778" id="path5226" data-index="11"/>
    <path d="m 121.28755,215.5621 c -0.3544,0.35433 -0.93401,0.70372 -1.6068,1.4751 0.55789,0.43561 1.12318,0.86512 1.71549,1.29583 0.9561,0.69518 0.75629,0.64459 1.97901,1.14698 2.53309,1.0408 4.59148,0.0823 6.35078,-1.47799 l 7.79822,-6.94391 c 0.27238,-0.22941 0.58399,-0.4803 0.84568,-0.7179 l 1.67062,-1.4544 c 2.27291,-1.51391 4.10968,-2.4815 7.02969,-2.25671 3.75582,0.2892 3.30391,1.0578 4.86029,1.37191 0.0254,1.0432 1.6479,11.2987 1.86673,11.74881 -1.0638,0.55598 -1.73193,1.3487 -3.3842,2.1929 -0.7451,0.38079 -3.5923,1.00238 -4.60682,0.912 -3.34049,-0.2976 -4.9905,-1.46703 -7.60299,-3.50121 l -1.4241,1.29409 c 0.40111,0.50892 2.53079,1.99373 3.2771,2.47361 1.3173,0.84691 2.6235,1.2355 4.35271,1.5628 4.17138,0.78959 8.10838,-1.52329 10.7339,-3.82188 1.04648,-0.9162 1.3093,-0.97692 1.1986,-1.72473 l -1.63502,-10.21828 c -0.1052,-0.59542 -0.13508,-1.97581 -0.57489,-2.33042 -0.84321,-0.67998 -2.87532,-1.78819 -3.9835,-1.93749 -0.98509,-0.13278 -1.61131,-0.21198 -2.70802,-0.2051 -1.85099,0.0116 -3.57308,0.17751 -5.2656,0.66322 -0.86099,0.24708 -3.89188,2.01277 -4.60068,2.76207 l -7.68071,7.0564 c -1.21949,0.93381 -1.9939,2.91173 -4.77831,2.6954 -1.96229,-0.1525 -2.08029,-0.66417 -2.9888,-1.36507 -0.37,-0.2855 -0.5455,-0.47562 -0.83838,-0.69603" style="fill:#ffffff;fill-opacity:1;fill-rule:evenodd;stroke:none;stroke-width:0.352778" id="path5223" data-index="12"/>
    <path d="m 87.63735,213.71813 1.708185,-1.6855 c -0.814493,-1.09672 -2.901491,-2.11191 -4.517778,-2.2485 -0.982098,-0.083 -2.081812,0.006 -3.044613,0.13818 -1.391885,0.19121 -2.905302,1.87861 -3.998101,2.80719 l -4.537181,4.06372 c -0.343112,0.32138 -0.597923,0.59091 -0.92262,0.86491 -0.924313,0.77967 -1.175596,1.12589 -2.194489,1.93548 -2.376523,1.88831 -3.031208,2.69839 -6.372507,3.1164 -2.236611,0.27979 -3.365289,-0.0961 -5.396407,-1.07251 -0.55319,-0.26589 -4.006991,-2.3167 -4.199784,-2.72419 l 0.421993,-2.35468 c 0.345087,-2.06644 1.101584,-5.94763 1.265202,-7.63782 0.0241,-0.0184 0.06339,-0.0731 0.07581,-0.0506 0.01217,0.0222 0.05779,-0.0392 0.07468,-0.0497 2.894789,-1.78841 3.518606,-2.2412 7.707912,-2.20952 1.437182,0.0109 2.840602,0.4724 3.887894,1.0971 0.56769,0.3386 1.062284,0.57531 1.617803,0.953 0.442101,0.30053 1.093788,0.82821 1.525094,1.03713 0.197802,-0.0877 1.309687,-0.97543 1.456196,-1.33583 -0.312914,-0.32018 -0.48701,-0.40139 -0.825782,-0.63059 -2.479922,-1.6776 -1.899709,-1.43401 -4.766204,-2.6114 -1.088496,-0.44711 -1.300516,-0.33031 -2.467328,-0.54339 -1.902883,-0.34762 -3.618477,-0.0311 -5.324475,0.34438 -1.147516,0.25263 -3.047224,1.23332 -4.097126,1.82161 -0.961284,0.53851 -0.825182,0.90949 -0.989189,1.90598 -0.149789,0.91021 -0.266982,1.70223 -0.42418,2.60223 l -1.25423,7.58529 c -0.09158,0.68852 0.549522,1.0045 1.28023,1.58232 2.107177,1.66609 5.054283,3.81797 7.704102,4.23276 3.221179,0.50434 6.830695,-0.44809 9.178184,-2.41539 0.662587,-0.55538 1.088496,-0.81439 1.608596,-1.29301 0.296192,-0.27259 0.443795,-0.43077 0.751311,-0.70178 l 3.89569,-3.5821 c 1.134392,-1.0607 1.978801,-1.67548 3.129103,-2.79319 2.199005,-2.13649 4.520212,-2.8793 7.116092,-0.81749 0.386398,0.30688 0.436316,0.50567 0.927912,0.6695" style="fill:#ffffff;fill-opacity:1;fill-rule:evenodd;stroke:none;stroke-width:0.352778" id="path5220" data-index="13"/>
    <path d="m 59.743353,217.23723 c 0.109784,-1.07551 0.762599,-5.00183 1.130405,-5.78771 0.788282,-0.0938 2.522996,0.37578 3.12159,0.75428 l 2.388693,1.58323 c 0.250508,-0.17752 0.272309,-0.14122 0.473005,-0.36922 l 1.540404,-1.44861 c -0.39109,-0.66019 -1.640523,-1.56538 -2.643117,-1.9746 -1.616498,-0.65988 -4.138401,-0.973 -5.920881,0.0793 -1.919217,1.13291 -1.266613,0.50793 -2.003989,5.02483 -0.324415,1.98737 -0.732614,1.94458 0.776499,3.05547 1.171998,0.86283 1.599776,1.0014 3.248483,1.43902 2.772093,0.73568 6.010698,-2.31281 8.084608,-4.3229 0.296087,-0.28702 0.376908,-0.30382 0.676699,-0.55221 l 4.901282,-4.48341 c 1.052725,-0.86678 1.208899,-1.25999 2.594399,-2.09067 4.684606,-2.80892 9.573295,-1.86792 13.686119,1.625 0.4058,-0.47361 1.049408,-0.80691 1.449987,-1.40663 -0.299085,-0.37268 -3.051386,-2.0725 -3.709881,-2.49657 -1.460924,-0.94083 -3.320697,-1.18241 -5.068112,-1.3371 -5.906805,-0.52293 -9.179489,2.5049 -12.708607,5.97418 l -1.643803,1.4804 c -0.334681,0.33292 -0.541303,0.41021 -0.848784,0.71681 -0.751593,0.7494 -3.568206,3.6661 -4.144609,3.8923 -1.986316,0.77978 -3.132702,0.76288 -5.38039,0.64481" style="fill:#ffffff;fill-opacity:1;fill-rule:evenodd;stroke:none;stroke-width:0.352778" id="path5217" data-index="14"/>
    <path d="m 119.08375,217.52813 -1.31939,1.19348 c 0.52818,0.67441 2.7281,2.07659 3.63739,2.50882 1.6789,0.79809 2.85598,1.16148 4.93899,0.86067 2.99459,-0.43247 5.61749,-2.3392 7.70841,-4.3458 l 5.4895,-5.00288 c 0.30088,-0.22539 0.50839,-0.445 0.82098,-0.74302 1.0365,-0.98821 2.21263,-2.00699 3.5867,-2.45417 1.25691,-0.40901 4.09942,-0.60414 5.29,0.0457 0.20183,0.5171 1.4048,8.50491 1.34352,9.04639 -1.3076,1.18611 -3.29431,2.02882 -5.55381,1.5247 -2.86798,-0.6399 -2.96101,-1.4375 -4.84011,-2.54808 -0.29718,0.18758 -1.10388,0.8423 -1.397,1.24679 0.8455,0.95229 3.74812,2.74359 5.11602,3.0885 2.31651,0.58409 5.01519,0.0767 6.79231,-0.9489 0.48877,-0.28208 2.2074,-1.39241 2.35807,-1.7708 0.12111,-0.30399 -1.50248,-10.04239 -1.6335,-10.72688 -1.73267,-0.71752 -2.44669,-1.41962 -4.75979,-1.40332 -1.00188,0.007 -1.87,0.17219 -2.74789,0.4142 -0.6768,0.18651 -3.3559,1.79969 -3.88362,2.25732 l -1.6558,1.47069 c -0.5921,0.5279 -1.08158,0.93419 -1.65128,1.4737 -0.19202,0.18189 -0.22839,0.19738 -0.4251,0.3587 l -2.8195,2.54078 c -0.471,0.4458 -1.1997,1.03011 -1.65541,1.47482 -0.35948,0.35091 -0.47809,0.4149 -0.84568,0.71431 -0.27471,0.2238 -0.5237,0.51629 -0.78843,0.77399 -0.45377,0.44178 -1.20568,0.9761 -1.87617,1.25539 -0.96443,0.40182 -1.41842,0.5097 -2.6422,0.5346 -3.9993,0.0816 -5.16083,-2.22811 -6.58721,-2.83968" style="fill:#ffffff;fill-opacity:1;fill-rule:evenodd;stroke:none;stroke-width:0.352778" id="path5214" data-index="15"/>
    <path d="m 89.957957,211.45083 c 0.250578,-0.24391 0.356694,-0.3943 0.585893,-0.58731 0.350379,-0.29531 0.354683,-0.16002 0.678286,-0.60251 -0.654685,-0.874 -2.919694,-2.0617 -4.052993,-2.47198 -4.011612,-1.45242 -7.023382,-0.47463 -10.121406,1.97238 -0.578485,0.45692 -1.135697,1.149 -1.730798,1.61442 -1.1678,0.91337 -3.25688,3.06228 -3.93439,3.54887 -1.010002,0.72542 -3.30909,3.27103 -5.050296,4.22293 -1.861996,1.01797 -2.839296,1.50389 -5.275015,0.91507 -2.056483,-0.4971 -3.067579,-1.53998 -4.19361,-2.49619 0.0051,-1.4055 0.513221,-3.67259 0.75953,-5.1357 0.39878,-2.3688 -0.0962,-1.85209 2.646786,-3.2602 1.776589,-0.912 5.44389,-0.31831 7.040104,0.94319 0.488914,0.38633 0.993387,1.0826 1.639111,1.35601 l 1.001183,-0.9869 c 0.323215,-0.2818 0.09691,0.0558 0.356906,-0.35909 -1.249398,-0.5872 -3.192816,-2.89712 -7.495787,-3.0099 -0.957333,-0.0252 -2.511108,0.23601 -3.384409,0.54119 -0.864623,0.30202 -1.827107,0.89592 -2.562401,1.3546 -0.760589,0.47459 -0.54102,0.47851 -0.781897,1.87142 l -1.235922,7.31837 c -0.01658,0.53351 -0.125095,0.2837 0.936096,1.1019 1.899215,1.46431 5.089631,3.13951 7.598234,2.8134 3.310466,-0.43038 3.105396,-0.74679 5.47437,-2.34978 l 3.488302,-3.09562 c 0.997514,-0.9022 2.953702,-2.4794 3.761105,-3.38939 l 2.494914,-2.19371 c 0.848502,-0.8026 1.795287,-1.64348 3.426884,-1.82559 1.62881,-0.18171 3.031102,-0.30639 4.560499,0.2232 1.967195,0.68111 2.783805,1.78009 3.370721,1.96692" style="fill:#ffffff;fill-opacity:1;fill-rule:evenodd;stroke:none;stroke-width:0.352778" id="path5211" data-index="16"/>
    <path d="m 117.16513,219.18333 c -0.27767,0.36188 -0.9319,0.88117 -1.40388,1.35258 0.19068,0.25368 0.6446,0.57369 0.89479,0.75209 l 3.02651,2.1124 c 1.27159,0.8092 4.01109,1.4351 5.87721,1.4351 1.20618,0 2.55298,-0.2799 3.69118,-0.61098 2.27609,-0.66202 2.39152,-0.8146 4.18229,-2.2914 l 2.33581,-2.01792 c 0.47601,-0.46817 0.74091,-0.63698 1.17489,-1.0602 l 2.22173,-2.0192 c 0.5304,-0.4506 0.6695,-0.58028 1.1249,-0.99709 l 1.18939,-1.04359 c 1.36511,-1.20032 2.03489,-2.029 3.923,-2.56282 0.50419,-0.14259 1.1401,-0.52119 1.66599,-0.48059 l 0.8672,4.81951 c 0.0327,0.13017 0.0829,0.26748 0.1077,0.35539 0.0489,0.17339 0.0624,-0.11889 0.0986,0.4107 -0.6163,0.41321 -0.0811,0.4541 -1.48071,0.4541 -2.66947,0 -3.97348,-1.87861 -4.49968,-2.08051 l -1.40251,1.3589 c 0.58512,0.74073 2.66499,1.91901 3.4864,2.20423 2.48282,0.86219 3.70392,0.40019 5.4005,-0.78063 0.41621,-0.2897 0.47791,-0.29468 0.3944,-0.88847 -0.11511,-0.8189 -0.27068,-1.66772 -0.40661,-2.5013 -0.26059,-1.59703 -0.43628,-3.43084 -0.79939,-5.00743 -0.8865,-0.1154 -1.67919,-0.41738 -2.52099,-0.29468 -0.80211,0.1168 -1.85899,0.20338 -2.53061,0.48429 -1.77578,0.74281 -4.22808,3.5638 -5.8274,4.88971 l -1.62359,1.39439 c -2.31979,1.9969 -2.4977,2.705 -5.9418,4.77651 -2.27601,1.36888 -4.68379,1.7362 -7.37401,1.26728 -1.68271,-0.2934 -4.5309,-2.37327 -5.85131,-3.43037" style="fill:#ffffff;fill-opacity:1;fill-rule:evenodd;stroke:none;stroke-width:0.352778" id="path5208" data-index="17"/>
    <path d="m 79.447332,215.6335 c -0.289384,0.23051 -1.409277,1.2113 -1.593074,1.44022 l 1.916077,1.46328 c 0.625616,0.4693 1.434324,0.84152 2.346007,0.99709 3.751686,0.64012 4.796896,-0.61517 7.003909,-2.61387 l 7.100076,-6.41159 c 2.062021,-1.85092 3.330928,-3.11672 6.352333,-3.81173 3.23627,-0.7444 5.61248,0.32769 8.0259,1.54802 0.58907,0.29789 1.63449,1.03361 1.99697,1.4592 0.63433,-0.41882 0.90752,-0.9803 1.60553,-1.30292 -0.1512,-0.2613 0.006,-0.04 -0.17131,-0.21988 -1.12021,-1.13902 -4.89352,-3.11101 -6.2858,-3.42392 -2.32949,-0.52349 -6.63712,-0.2938 -8.617193,0.8436 -1.426421,0.81943 -2.936628,1.59981 -4.0501,2.75981 -0.345017,0.35941 -0.550404,0.43692 -0.896303,0.77879 l -2.136598,1.99341 c -0.211103,0.16062 -0.270404,0.23001 -0.469406,0.42471 l -3.448897,3.25321 c -0.618102,0.58949 -1.084509,1.14878 -1.653011,1.69517 -1.665287,1.60013 -4.465708,1.47313 -6.011686,-0.11159 -0.243311,-0.24948 -0.682519,-0.64371 -1.013424,-0.76101" style="fill:#ffffff;fill-opacity:1;fill-rule:evenodd;stroke:none;stroke-width:0.352778" id="path5205" data-index="18"/>
    <path d="m 100.30133,215.7218 c -0.20228,0.26561 -0.422803,0.4572 -0.712893,0.7269 -0.2026,0.18852 -0.56769,0.4487 -0.745878,0.73671 0.35807,0.3612 0.55118,0.42792 0.955182,0.75409 0.314609,0.25411 0.608189,0.4867 0.938499,0.7335 0.63122,0.47142 1.5108,0.7826 2.43032,0.91652 2.26338,0.32938 3.84947,-0.005 5.20629,-1.27861 0.3005,-0.28191 0.54349,-0.54501 0.83651,-0.84 1.0765,-1.08391 3.81268,-3.34349 5.2905,-4.75971 0.35147,-0.3368 0.59718,-0.48109 0.96707,-0.81788 l 2.67293,-2.35331 c 3.37227,-3.01879 6.69208,-3.88451 11.30169,-2.27168 0.80081,0.28017 1.54778,0.71099 2.2183,1.1333 0.52469,0.33059 1.68049,1.26739 2.07441,1.39809 0.4348,-0.46002 1.14977,-0.96629 1.47708,-1.48481 -0.51841,-0.17938 -1.52189,-0.95468 -2.0628,-1.2895 -1.80548,-1.1176 -2.25711,-1.61449 -4.4516,-2.23711 -0.42121,-0.11938 -2.47509,-0.2854 -3.0474,-0.29669 -3.93978,-0.0784 -6.8913,1.30849 -9.67009,3.78439 l -7.8165,7.25442 c -0.7632,0.99861 -1.59022,1.79208 -2.999,2.0223 -3.10889,0.5081 -3.9431,-1.4671 -4.86262,-1.83092" style="fill:#ffffff;fill-opacity:1;fill-rule:evenodd;stroke:none;stroke-width:0.352778" id="path5202" data-index="19"/>
    <path d="m 96.306758,219.41651 c -0.565997,0.42309 -0.820209,0.86621 -1.44272,1.21649 0.288219,0.5619 3.137005,2.40322 3.788304,2.80603 1.127689,0.69747 3.724808,1.34147 5.358098,1.39738 2.69681,0.0925 5.74322,-0.74499 7.67362,-2.43159 1.22019,-1.06602 2.24299,-1.8143 3.60909,-3.0904 l 7.08258,-6.3185 c 0.89662,-0.6744 2.6712,-1.22382 3.7496,-1.09431 1.44523,0.1736 2.1934,1.07061 3.23043,1.85931 0.32938,-0.20542 0.68438,-0.60081 0.96858,-0.85743 0.21551,-0.19469 0.2734,-0.20986 0.4759,-0.41698 0.17589,-0.17999 0.2286,-0.27231 0.4082,-0.4385 -0.58311,-0.86949 -2.8533,-2.11579 -4.4172,-2.24529 -1.18989,-0.0986 -1.81878,-0.005 -3.04888,0.10488 -1.60193,0.14383 -2.92171,1.6104 -4.08761,2.60339 l -7.07831,6.43291 c -1.5966,1.46801 -2.15949,1.60743 -3.9171,2.77643 -1.29328,0.86007 -4.0144,1.23158 -5.5367,1.04687 -1.37658,-0.16697 -1.47109,-0.194 -2.62471,-0.72598 -0.818582,-0.37751 -1.444798,-0.75322 -2.171802,-1.17832 -0.743479,-0.43458 -1.420177,-1.16289 -2.01937,-1.44639" style="fill:#ffffff;fill-opacity:1;fill-rule:evenodd;stroke:none;stroke-width:0.352778" id="path5199" data-index="20"/>
    <path d="m 75.427852,219.2972 c -0.213007,0.12182 -1.259805,1.0039 -1.495001,1.3504 0.113382,0.13822 -0.03972,-0.0131 0.175083,0.19142 0.610517,0.5812 3.009618,2.18969 3.664409,2.59821 1.006192,0.62769 3.878791,1.32969 5.359117,1.39488 1.758668,0.0775 5.604687,-0.72559 6.756189,-1.56101 0.370487,-0.26878 0.673205,-0.47127 0.961389,-0.71398 l 8.846997,-7.7887 c 0.627625,-0.59641 1.083525,-0.9724 1.752915,-1.5929 1.3171,-1.22061 3.45631,-1.76431 4.9717,-0.96781 1.2482,0.6561 1.39859,1.1491 1.94451,1.41849 0.32279,-0.18729 0.70228,-0.63098 0.93458,-0.8659 0.37031,-0.3744 0.61009,-0.42979 0.92992,-0.81738 -0.24571,-0.33112 -1.38462,-1.14981 -1.88242,-1.43891 -0.64809,-0.37631 -1.74978,-0.6446 -2.63419,-0.72461 -2.82081,-0.25509 -4.15442,0.3199 -6.073319,2.13653 l -7.952704,7.24147 c -0.59249,0.57143 -1.091283,0.9278 -1.926096,1.42021 -1.446283,0.85309 -2.646998,1.75959 -4.64499,2.06971 -3.115204,0.48348 -5.047297,-0.1887 -7.741884,-1.82372 -0.81721,-0.4959 -1.233206,-1.02189 -1.946205,-1.5264" style="fill:#ffffff;fill-opacity:1;fill-rule:evenodd;stroke:none;stroke-width:0.352778" id="path5196" data-index="21"/>
    <path d="m 83.801738,220.3652 c -1.430902,0 -2.705206,-0.32078 -3.928392,-0.92001 l -2.547408,-1.83169 c -0.500698,0.21012 -0.979699,0.72111 -1.370189,1.13552 0.582895,0.8919 3.18389,2.31648 4.041387,2.68348 3.897418,1.66761 6.664501,0.46672 10.040126,-1.8119 l 5.333576,-4.71029 c 0.293899,-0.26861 0.556119,-0.508 0.869315,-0.80758 l 1.741382,-1.60941 c 0.324414,-0.31471 0.516607,-0.4408 0.877005,-0.79781 l 1.7986,-1.55458 c 1.8119,-1.26281 5.99031,-1.47553 8.15132,-0.1046 l 2.01299,1.354 c 0.70128,-0.69152 1.04298,-0.72542 1.24428,-1.2409 -1.55709,-1.56602 -4.99787,-3.24171 -8.05787,-2.99893 -3.59823,0.2855 -5.421029,2.15671 -7.279921,3.86602 -1.082181,0.99519 -1.9056,1.59607 -2.882406,2.59158 -0.396699,0.40432 -1.009086,1.00122 -1.437993,1.35061 -0.53728,0.43769 -0.987989,0.8824 -1.510206,1.28411 -1.950297,1.50029 -3.422685,4.12238 -7.095596,4.12238" style="fill:#ffffff;fill-opacity:1;fill-rule:evenodd;stroke:none;stroke-width:0.352778" id="path5193" data-index="22"/>
    <path d="m 98.208441,217.66293 c -0.485281,0.47307 -0.819185,0.77078 -1.347082,1.1751 0.413597,0.71169 2.955079,2.19138 4.053591,2.66488 1.4816,0.6386 0.87461,0.44701 2.68859,0.67141 2.5902,0.32039 5.30712,-1.21659 7.30441,-2.66972 l 7.10208,-6.40948 c 0.9857,-0.8515 2.58262,-2.45223 3.61143,-3.08751 0.98379,-0.60759 1.33399,-0.65461 2.57439,-0.7723 0.98478,-0.0935 2.15639,-0.1845 3.21621,-0.0209 1.54569,0.23869 3.51077,1.51528 4.36707,2.33129 0.47282,-0.36621 0.93362,-0.8329 1.32383,-1.25761 -2.38802,-2.23009 -6.6645,-3.86299 -9.96802,-2.8961 -2.48641,0.72771 -4.23629,2.2437 -6.05889,3.9889 -1.9855,1.90119 -5.325,4.59471 -7.12992,6.3809 -2.07937,2.05779 -3.7109,3.11601 -7.4567,2.38972 -2.0448,-0.39653 -2.958072,-1.81092 -4.280989,-2.4886" style="fill:#ffffff;fill-opacity:1;fill-rule:evenodd;stroke:none;stroke-width:0.352778" id="path5190" data-index="23"/>
    <path d="m 97.775442,150.63473 4.542718,0.0264 c 0.0179,-2.67589 -7e-4,-5.32549 -7e-4,-7.96861 0,-1.56108 0.038,-2.20359 -0.38291,-3.61548 -0.36011,-1.2078 -2.127214,-3.86951 -3.846794,0.0311 -0.200307,0.45441 -0.376308,1.13383 -0.3562,1.5156 0.14598,2.78152 0.03369,7.08011 0.04389,10.01103" style="fill:#28579e;fill-opacity:1;fill-rule:evenodd;stroke:none;stroke-width:0.352778" id="path5187" data-index="24"/>
    <path d="m 106.99465,142.24571 -3.1e-4,8.41399 4.39779,0.005 0.004,-10.0941 c -3.5e-4,-1.71888 -1.59748,-4.0271 -2.78479,-3.3376 -1.3982,0.81209 -1.61629,3.00429 -1.61629,5.0128" style="fill:#28579e;fill-opacity:1;fill-rule:evenodd;stroke:none;stroke-width:0.352778" id="path5184" data-index="25"/>
    <path d="m 70.768928,150.66122 c 0.864729,0.0124 3.743819,0.11698 4.389719,-0.0828 0.169404,-3.36839 1.197998,-8.0664 0.81841,-10.7781 -0.150002,-1.0711 -0.327202,-2.1789 -1.442403,-2.6095 -2.133811,1.47839 -2.286317,2.8424 -2.706511,5.81371 -0.355,2.51058 -0.803804,5.08579 -1.059215,7.65669" style="fill:#28579e;fill-opacity:1;fill-rule:evenodd;stroke:none;stroke-width:0.352778" id="path5181" data-index="26"/>
    <path d="m 61.483147,150.63882 4.389896,0.0287 c 0.09991,-2.22098 0.533788,-4.84128 0.790398,-7.13518 0.181187,-1.61981 0.318312,-3.76061 -0.324379,-5.37379 -0.156704,-0.39331 -0.67123,-0.78352 -0.969433,-1.01632 -2.231672,1.1883 -2.470185,3.48869 -2.800597,5.8728 -0.33648,2.42722 -0.645971,5.1974 -1.085885,7.62381" style="fill:#28579e;fill-opacity:1;fill-rule:evenodd;stroke:none;stroke-width:0.352778" id="path5178" data-index="27"/>
    <path d="m 143.53555,150.64492 4.16098,0.0188 c -0.11239,-1.54742 -1.29999,-11.3969 -2.54497,-12.60139 -0.17082,-0.16532 -1.11492,-0.7595 -1.3927,-0.88163 -0.4476,0.28751 -0.68231,0.48761 -0.83711,1.10271 -0.55802,2.21792 -0.5068,3.05619 -0.2419,5.39782 0.11921,1.05399 0.56879,6.43209 0.8557,6.96369" style="fill:#28579e;fill-opacity:1;fill-rule:evenodd;stroke:none;stroke-width:0.352778" id="path5175" data-index="28"/>
    <path d="m 138.28294,150.63843 c -0.006,-0.9259 -0.7607,-6.32933 -0.93381,-7.65221 -0.16668,-1.27511 -0.6811,-3.98942 -1.52089,-4.86992 -0.21999,-0.23068 -1.0075,-0.77449 -1.3365,-0.93758 -2.01701,1.08801 -1.1364,5.84599 -0.8696,8.17298 l 0.53062,4.93371 c 0.1083,0.45882 -0.22853,0.38339 1.56707,0.3792 0.83813,-0.002 1.73493,0.0444 2.56311,-0.0262" style="fill:#28579e;fill-opacity:1;fill-rule:evenodd;stroke:none;stroke-width:0.352778" id="path5172" data-index="29"/>
    <path d="m 103.29444,97.950329 2.6966,0.02907 c 0.22091,-1.132169 0.0467,-4.716568 0.0466,-6.102985 -1.1e-4,-1.705292 0.3333,-4.534111 -1.41401,-4.831503 -1.55257,-0.264195 -1.3614,3.443393 -1.3614,4.719814 0,1.597801 -0.18048,4.777599 0.0322,6.185605" style="fill:#28579e;fill-opacity:1;fill-rule:evenodd;stroke:none;stroke-width:0.352778" id="path5169" data-index="30"/>
    <path d="m 130.29333,117.53172 c 0.63733,0.18238 2.16091,0.0782 2.9052,0.0806 -0.0515,-0.96051 -0.26868,-1.99221 -0.3906,-2.941 -0.13,-1.01212 -0.26899,-1.94921 -0.41017,-2.93811 -0.34262,-2.3997 -0.18793,-3.61259 -1.92553,-4.679 -1.7549,0.70319 -1.02609,3.70311 -0.90798,4.8181 0.20588,1.9437 0.6241,3.81359 0.72908,5.6594" style="fill:#28579e;fill-opacity:1;fill-rule:evenodd;stroke:none;stroke-width:0.352778" id="path5166" data-index="31"/>
    <path d="m 108.21435,90.536211 -0.005,7.415106 2.63429,0.01249 0.012,-7.762592 c -0.0542,-3.588209 -2.21199,-3.976582 -2.64301,-1.693404 -0.0583,0.308998 -0.11811,0.74482 -0.11769,1.072409 3.5e-4,0.317782 0.1191,0.570407 0.1191,0.955993" style="fill:#28579e;fill-opacity:1;fill-rule:evenodd;stroke:none;stroke-width:0.352778" id="path5163" data-index="32"/>
    <path d="m 98.57406,97.976223 2.49238,-0.0044 c 0.0911,-0.6731 0.29111,-9.292096 -0.3453,-10.284813 -0.47929,-0.747571 -1.797512,-1.273986 -2.1166,1.001712 -0.172684,1.231689 -0.158009,8.576416 -0.03048,9.28751" style="fill:#28579e;fill-opacity:1;fill-rule:evenodd;stroke:none;stroke-width:0.352778" id="path5160" data-index="33"/>
    <path d="m 65.682049,117.60231 2.721292,-2.8e-4 c 0.236009,-1.85731 0.445206,-3.71101 0.685518,-5.58691 0.309174,-2.4136 0.717091,-3.37481 -0.658813,-4.95131 -0.963612,0.30621 -1.092305,0.86819 -1.456689,1.82379 -0.321699,0.8436 -0.386116,1.859 -0.5092,2.83831 -0.221721,1.76301 -0.730426,4.11579 -0.782108,5.8764" style="fill:#28579e;fill-opacity:1;fill-rule:evenodd;stroke:none;stroke-width:0.352778" id="path5157" data-index="34"/>
    <path d="m 135.70844,117.59811 2.834,0.0112 -1.22248,-8.69132 c -0.22472,-0.90508 -0.71981,-1.39668 -1.4884,-1.8755 -1.49141,0.91041 -0.9386,2.96372 -0.72161,4.89521 0.20359,1.81201 0.42051,3.8058 0.59849,5.66039" style="fill:#28579e;fill-opacity:1;fill-rule:evenodd;stroke:none;stroke-width:0.352778" id="path5154" data-index="35"/>
    <path d="m 139.77074,108.96402 0.99579,8.59299 2.72041,0.0609 c -0.10749,-1.84559 -0.53181,-4.13378 -0.7862,-5.90377 -0.27418,-1.9074 -0.27489,-4.27263 -2.104,-4.69582 -0.36488,0.64579 -0.82441,0.79039 -0.826,1.94571" style="fill:#28579e;fill-opacity:1;fill-rule:evenodd;stroke:none;stroke-width:0.352778" id="path5151" data-index="36"/>
    <path d="m 76.097248,117.60111 2.697797,3.5e-4 0.988695,-8.29969 c 0.12192,-1.1932 -0.457094,-1.53699 -0.871078,-2.24738 -1.725719,0.4058 -1.688818,2.399 -1.99891,4.61698 -0.281905,2.01581 -0.535622,3.94163 -0.816504,5.9297" style="fill:#28579e;fill-opacity:1;fill-rule:evenodd;stroke:none;stroke-width:0.352778" id="path5148" data-index="37"/>
    <path d="m 70.753547,117.57303 2.572984,0.0374 1.061615,-8.75231 c -0.05232,-0.81668 -0.634013,-1.3838 -1.081688,-1.7659 -1.500505,0.41399 -1.546613,2.9469 -1.779622,4.6681 z" style="fill:#28579e;fill-opacity:1;fill-rule:evenodd;stroke:none;stroke-width:0.352778" id="path5145" data-index="38"/>
    
    
    
    
    
    <g aria-label="OPĆINA GRUDE" id="text3809" style="font-weight:bold;font-size:105.833px;-inkscape-font-specification:'sans-serif Bold';word-spacing:0.79375px;fill:#24549c;stroke-width:0.264583">
      
      
      
      
      
      
      
      
      
      
      
    </g>
    
  </g>
</svg>