<?xml version="1.0" encoding="UTF-8"?>
<svg version="1.1" xmlns="http://www.w3.org/2000/svg" width="512" height="512">
<path d="M0 0 C0.95729004 0.26312988 1.91458008 0.52625977 2.90087891 0.79736328 C46.39400371 13.20290832 80.89111685 41.51651211 102.90161133 80.75512695 C127.31106808 125.74138035 123.71945975 175.39039549 110 223 C103.92585436 243.4781599 96.41844323 263.37407031 88 283 C87.56220215 284.02963867 87.1244043 285.05927734 86.67333984 286.12011719 C79.32834855 303.34642133 71.25339253 320.19606068 63 337 C62.43466553 338.15556396 62.43466553 338.15556396 61.85791016 339.33447266 C59.61509324 343.91218362 57.31653785 348.45937041 55 353 C54.16927979 354.63461182 54.16927979 354.63461182 53.32177734 356.30224609 C45.08526712 372.49690482 36.63857244 388.51530281 27.56787109 404.26269531 C25.97214126 407.04863784 24.39886457 409.84615153 22.83203125 412.6484375 C15.42248467 425.89237965 7.73126011 438.94721128 -0.13574219 451.92431641 C-1.95135741 454.91974864 -3.76120349 457.91860387 -5.5703125 460.91796875 C-11.45304824 470.65047811 -17.41678562 480.32888758 -23.5 489.9375 C-24.06340088 490.83106201 -24.62680176 491.72462402 -25.20727539 492.64526367 C-27.77872201 496.68292975 -30.40420822 500.67500057 -33.1875 504.5703125 C-33.64511719 505.2111377 -34.10273438 505.85196289 -34.57421875 506.51220703 C-36 508 -36 508 -39.5 508.9375 C-47.28532538 506.85214499 -51.94589109 497.01669086 -56.3125 490.6875 C-57.35083984 489.18775635 -57.35083984 489.18775635 -58.41015625 487.65771484 C-65.76447471 476.97841112 -72.8659902 466.13753872 -79.90185547 455.24658203 C-81.95091334 452.07595467 -84.00843489 448.91094015 -86.06640625 445.74609375 C-95.78938919 430.7359206 -105.02775948 415.46978772 -114 400 C-114.55751953 399.0394873 -115.11503906 398.07897461 -115.68945312 397.08935547 C-125.25238116 380.54595476 -134.22635502 363.68570734 -143.08068848 346.75537109 C-143.90209807 345.18693795 -144.72762725 343.62066387 -145.55371094 342.0546875 C-171.3557644 292.9776802 -193.09649164 238.24073387 -200 183 C-200.14139404 181.89760986 -200.14139404 181.89760986 -200.28564453 180.77294922 C-205.29606703 137.18496247 -195.53670784 92.71934591 -168 58 C-143.8107982 28.15351908 -113.15559798 8.57244343 -76 -1 C-75.31905273 -1.18079102 -74.63810547 -1.36158203 -73.93652344 -1.54785156 C-51.19072274 -7.29427936 -22.50198021 -6.20238837 0 0 Z M-91.34375 107.3046875 C-105.89261294 122.06750431 -113.69248953 139.23137305 -114.375 160.125 C-114.002222 180.56566041 -105.86791561 198.654878 -91.765625 213.32421875 C-76.45007994 228.0641796 -56.83182432 234.64026539 -35.796875 234.26953125 C-15.90499594 233.46127435 2.03072789 223.50011805 15.625 209.375 C29.23504556 193.60081292 35.38879215 173.72734949 34 153 C31.35564185 132.26156916 21.69700271 115.56638461 6 102 C-23.74121661 79.7572771 -64.55232951 81.04387923 -91.34375 107.3046875 Z " fill="#000000" transform="translate(296,4)"/>
</svg>
